<?xml version="1.0" standalone="no"?>
<!DOCTYPE svg PUBLIC "-//W3C//DTD SVG 20010904//EN"
 "http://www.w3.org/TR/2001/REC-SVG-20010904/DTD/svg10.dtd">
<svg version="1.0" xmlns="http://www.w3.org/2000/svg"
 width="509.000000pt" height="285.000000pt" viewBox="0 0 509.000000 285.000000"
 preserveAspectRatio="xMidYMid meet">

<g transform="translate(0.000000,285.000000) scale(0.100000,-0.100000)"
fill="#000000" stroke="none">
<path d="M4115 2185 c-5 -2 -40 -6 -77 -10 l-68 -7 0 -569 0 -570 43 3 42 3 3
286 2 286 38 7 c20 3 49 6 64 6 22 0 33 11 62 59 l36 59 0 178 0 178 -32 48
c-29 42 -37 47 -68 47 -19 0 -39 -2 -45 -4z m55 -284 l0 -188 -31 -7 c-17 -3
-42 -6 -55 -6 l-24 0 0 189 0 190 33 4 c17 2 42 5 55 5 l22 2 0 -189z"/>
<path d="M3765 2138 c-5 -14 -23 -131 -56 -363 -28 -202 -40 -265 -49 -265 -4
0 -17 64 -30 143 -60 392 -71 462 -75 465 -2 2 -22 1 -44 -3 l-41 -7 0 -569 0
-569 29 0 c63 0 61 -7 61 217 0 122 4 202 9 198 5 -3 24 -45 41 -93 34 -96 46
-119 55 -110 3 3 22 50 41 104 19 55 38 106 42 114 4 8 9 -77 12 -190 l5 -205
33 1 c67 4 62 -43 62 579 l0 565 -45 0 c-28 0 -47 -5 -50 -12z"/>
<path d="M3170 2054 c-6 -14 -10 -39 -10 -55 0 -17 -13 -161 -29 -322 -66
-656 -75 -747 -69 -753 4 -3 24 -3 46 1 l39 6 13 152 c7 87 17 155 24 159 6 4
25 8 42 8 l30 0 13 -142 c7 -78 15 -146 17 -150 3 -4 23 -8 45 -8 30 0 39 4
39 18 0 29 -94 972 -106 1065 l-6 47 -39 0 c-33 0 -41 -4 -49 -26z m65 -592
c4 -56 7 -105 6 -109 -1 -10 -51 -10 -52 0 -2 18 13 224 18 237 10 28 21 -23
28 -128z"/>
<path d="M2828 2031 c-26 -4 -49 -9 -51 -11 -2 -3 -20 -30 -41 -60 l-36 -55 0
-466 0 -466 41 -47 c39 -44 43 -46 82 -40 102 13 101 12 135 64 31 49 32 52
32 161 l0 111 -37 -7 c-21 -4 -41 -9 -45 -11 -5 -3 -8 -52 -8 -108 l0 -103
-47 -6 c-27 -3 -51 -3 -55 0 -11 6 -10 931 1 937 5 4 30 9 55 12 l46 7 0 -72
c0 -67 1 -71 23 -71 61 1 67 7 67 81 0 61 -4 73 -32 114 -34 48 -36 49 -130
36z"/>
<path d="M2093 1943 c-24 -5 -28 -25 -38 -198 -17 -284 -33 -442 -44 -429 -4
5 -16 142 -26 304 -10 162 -20 298 -24 302 -3 3 -24 3 -46 -1 l-40 -6 -17
-309 c-9 -170 -20 -311 -23 -314 -3 -3 -8 -3 -11 0 -3 3 -14 131 -25 284 -11
154 -22 289 -24 302 -4 17 -12 22 -40 22 -39 0 -50 -13 -47 -55 1 -16 11 -232
22 -480 12 -247 24 -484 28 -525 l7 -75 40 3 c22 2 42 5 44 7 2 3 10 44 17 92
66 427 75 470 88 412 3 -13 22 -125 42 -249 20 -124 39 -228 42 -232 4 -3 25
-3 47 1 l40 6 7 145 c4 80 14 291 23 470 8 179 18 371 21 428 l6 102 -23 -1
c-13 -1 -34 -4 -46 -6z"/>
<path d="M1412 1863 c-26 -3 -39 -14 -67 -56 l-35 -52 0 -480 0 -480 33 -39
33 -39 77 8 78 7 34 54 35 54 0 470 0 469 -32 46 c-30 43 -34 45 -77 43 -25 0
-61 -3 -79 -5z m98 -563 l0 -470 -22 -4 c-13 -3 -38 -7 -55 -9 l-33 -4 0 472
c0 259 3 475 7 478 3 4 28 7 55 7 l48 0 0 -470z"/>
<path d="M1112 1821 c-10 -6 -13 -76 -12 -332 0 -207 -3 -320 -9 -314 -5 6
-21 60 -35 120 -59 257 -118 491 -126 499 -4 4 -27 5 -49 1 l-41 -7 0 -563 c0
-310 3 -566 8 -568 4 -2 24 -2 45 0 l37 5 0 329 c0 181 3 329 8 329 4 0 17
-44 29 -97 12 -54 46 -197 75 -318 l54 -220 39 4 c22 1 43 5 48 8 4 2 7 258 7
569 l0 564 -32 0 c-18 0 -39 -4 -46 -9z"/>
<path d="M2460 1500 c-25 -4 -75 -11 -112 -14 l-68 -8 0 -49 c0 -57 -6 -55
130 -39 161 19 150 14 150 70 0 48 -1 50 -27 49 -16 -1 -48 -5 -73 -9z"/>
</g>
</svg>
